<?xml version="1.0" encoding="utf-8"?>
<!-- Generator: Adobe Illustrator 13.0.0, SVG Export Plug-In . SVG Version: 6.00 Build 14948)  -->
<!DOCTYPE svg PUBLIC "-//W3C//DTD SVG 1.1//EN" "http://www.w3.org/Graphics/SVG/1.1/DTD/svg11.dtd">
<svg version="1.1" id="Layer_1" xmlns="http://www.w3.org/2000/svg" xmlns:xlink="http://www.w3.org/1999/xlink" x="0px" y="0px"
	 width="100px" height="100px" viewBox="282.618 232.97 100 100" enable-background="new 282.618 232.97 100 100"
	 xml:space="preserve">
<g>
	<circle id="XMLID_87_" fill="#FEBA00" cx="332.618" cy="282.97" r="50"/>
	<g id="XMLID_60_">
		<path id="XMLID_95_" fill="#E76123" d="M312.907,268.687c0.108-0.054,0.215-0.113,0.317-0.171
			c0.056,0.068,0.109,0.137,0.175,0.201l6.063,6.063c0.379-0.445,0.938-0.725,1.541-0.725c0.195,0,0.394,0.026,0.577,0.082
			l0.759,0.226l0.469-1.582l-6.735-6.739c-0.105-0.105-0.222-0.195-0.346-0.271l0.016-0.068c0.017-0.064,0.036-0.112,0.058-0.167
			c0.015-0.041,0.03-0.086,0.048-0.13c0.018-0.044,0.038-0.092,0.059-0.141c0.034-0.082,0.067-0.17,0.113-0.26l0.126-0.256
			l0.146-0.257c0.059-0.115,0.127-0.219,0.206-0.334c0.044-0.062,0.085-0.123,0.126-0.188c0.041-0.052,0.078-0.104,0.119-0.158
			c0.096-0.129,0.188-0.253,0.287-0.358l0.071-0.075c0.131-0.144,0.264-0.294,0.413-0.421c0.052-0.04,0.086-0.075,0.126-0.109
			c0.053-0.047,0.104-0.099,0.161-0.144l0.294-0.215c0.012-0.004,0.018-0.01,0.023-0.017c0.117-0.093,0.261-0.174,0.411-0.26
			c0.061-0.031,0.119-0.065,0.181-0.099c0.127-0.083,0.256-0.135,0.396-0.192c0.067-0.026,0.137-0.059,0.208-0.085
			c0.041-0.017,0.082-0.034,0.123-0.055c0.042-0.018,0.086-0.038,0.131-0.052l0.323-0.088c0.065-0.018,0.142-0.038,0.217-0.063
			c0.104-0.03,0.208-0.058,0.275-0.068l0.867-0.126c0.127-0.021,0.24-0.078,0.325-0.164c0.096-0.096,0.157-0.223,0.168-0.366
			c0.017-0.271-0.154-0.516-0.414-0.595l-0.857-0.242c-0.146-0.045-0.305-0.068-0.458-0.089c-0.067-0.01-0.137-0.021-0.212-0.034
			l-0.373-0.058c-0.118-0.018-0.229-0.021-0.327-0.024c-0.037,0-0.078,0-0.119-0.003c-0.097-0.004-0.168-0.007-0.243-0.011
			c-0.215-0.007-0.464-0.017-0.729,0.018l-0.163,0.013c-0.253,0.021-0.54,0.045-0.83,0.113l-0.462,0.093
			c-0.144,0.037-0.264,0.075-0.383,0.109l-0.146,0.047c-0.336,0.093-0.65,0.226-0.958,0.356l-0.041,0.017
			c-0.264,0.109-0.502,0.236-0.734,0.358l-0.19,0.103c-0.015,0.007-0.024,0.014-0.038,0.021c-0.074,0.049-0.149,0.093-0.223,0.137
			c-0.2,0.12-0.409,0.246-0.602,0.39l-0.321,0.229c-0.007,0.003-0.037,0.026-0.044,0.034l-0.316,0.252
			c-0.086,0.065-0.165,0.134-0.24,0.199c-0.57,0.095-1.121,0.362-1.563,0.803l-0.676,0.677c-0.314,0.314-0.609,0.752-0.848,1.243
			c-1.066-0.204-2.512,1.368-4.665,3.523l4.817,4.815C311.039,271.698,313.113,269.749,312.907,268.687L312.907,268.687z"/>
		<path id="XMLID_70_" fill="#E76123" d="M359.182,285.835v-11.69c-0.083,0.112-0.165,0.225-0.25,0.334
			c-1.271,1.603-2.956,2.759-4.843,3.374h0.533v7.982h-12.224l5.728-7.809c0.103-0.133,0.202-0.271,0.291-0.414
			c3.198,0.803,6.718-0.263,8.895-3.014c1.59-2.006,2.207-4.597,1.695-7.104c-0.059-0.287-0.276-0.513-0.557-0.581
			c-0.284-0.064-0.581,0.038-0.764,0.264l-3.689,4.661l-4.798-0.93l-2.006-4.459l3.692-4.661c0.183-0.229,0.213-0.541,0.082-0.8
			c-0.129-0.26-0.398-0.421-0.688-0.41c-2.563,0.075-4.941,1.268-6.531,3.273c-2.176,2.748-2.412,6.418-0.901,9.347
			c-0.112,0.119-0.226,0.249-0.335,0.382l-7.413,8.816l1.795,1.798c0.465,0.461,0.79,1.025,0.965,1.641h-0.801
			c-0.146-0.403-0.376-0.783-0.699-1.104l-10.204-10.203l-0.265,0.889l0.69,0.204c0.52,0.154,0.95,0.503,1.206,0.981
			c0.26,0.475,0.316,1.024,0.165,1.545c-0.086,0.279-0.229,0.536-0.418,0.751c0.055,0.479,0.015,0.961-0.127,1.425l-0.915,3.086
			l2.427,2.427h-4.18l1.801-6.066c0.153-0.519,0.14-1.045-0.004-1.523c0.253-0.13,0.459-0.358,0.544-0.656
			c0.171-0.57-0.153-1.172-0.729-1.343l-1.603-0.476l4.354-14.653l0.137,0.041l1.128-2.18l0.443-3.407l-1.879-0.558l-1.463,3.104
			l-0.236,2.446l0.141,0.041l-4.354,14.653l-1.668-0.495c-0.57-0.171-1.172,0.157-1.344,0.729c-0.081,0.276-0.047,0.56,0.072,0.8
			c-0.399,0.324-0.71,0.769-0.871,1.301l-2.443,8.243h-2.286v-7.982h3.027l0.544-1.825c0.136-0.458,0.229-0.584,0.498-0.964
			l-4.89-5.01c-0.67,0.92-1.333,1.876-2.361,2.901l-1.381,1.377v11.503h-1.482v15.966c0,5.037,4.087,9.125,9.124,9.125h33.984
			c5.041,0,9.125-4.085,9.125-9.125v-15.966h-1.484V285.835z M323.371,280.162c0.181-0.604,0.82-0.949,1.425-0.772
			c0.604,0.182,0.954,0.82,0.772,1.426l-1.489,5.02h-2.394L323.371,280.162z M319.678,279.065c0.179-0.605,0.816-0.953,1.424-0.772
			c0.609,0.181,0.954,0.816,0.772,1.425l-1.817,6.117h-2.392L319.678,279.065z"/>
	</g>
</g>
</svg>
