<?xml version="1.0" encoding="utf-8"?>
<!-- Generator: Adobe Illustrator 13.0.0, SVG Export Plug-In . SVG Version: 6.00 Build 14948)  -->
<!DOCTYPE svg PUBLIC "-//W3C//DTD SVG 1.1//EN" "http://www.w3.org/Graphics/SVG/1.1/DTD/svg11.dtd">
<svg version="1.1" id="Layer_1" xmlns="http://www.w3.org/2000/svg" xmlns:xlink="http://www.w3.org/1999/xlink" x="0px" y="0px"
	 width="100px" height="100px" viewBox="282.618 390.836 100 100" enable-background="new 282.618 390.836 100 100"
	 xml:space="preserve">
<g>
	<circle id="XMLID_33_" fill="#FEBA00" cx="332.618" cy="440.836" r="50"/>
	<g id="XMLID_8_">
		<path id="XMLID_10_" fill="#E76123" d="M329.858,405.337c-8.483,0-15.361,6.877-15.361,15.357c0,5.549,2.957,10.397,7.367,13.099
			V420.54c0-4.409,3.584-7.994,7.994-7.994c4.403,0,7.992,3.585,7.992,7.994v13.253c4.41-2.7,7.362-7.549,7.362-13.099
			C345.214,412.214,338.342,405.337,329.858,405.337z"/>
		<path id="XMLID_9_" fill="#E76123" d="M357.25,451.781c0.073-1.277-0.629-1.449-1.65-2.039c-0.735-0.428-1.468-0.853-2.202-1.277
			c-1.466-0.852-2.932-1.703-4.397-2.551c-2.894-1.677-5.788-3.354-8.681-5.031c-1.979-0.299-3.75-0.516-5.467-0.646v-19.732
			c0-2.744-2.249-4.994-4.993-4.994c-2.749,0-4.994,2.25-4.994,4.994v35.81c-2.313-0.541-4.623-1.084-6.938-1.625
			c-1.167-0.273-2.336-0.546-3.508-0.82c-0.519-0.119-1.034-0.271-1.549-0.406c-0.465-0.121-1.088-0.373-1.572-0.332
			c-0.441,0.033-0.711,0.691-0.969,1.057c-0.307,0.441-0.614,0.884-0.919,1.322c-0.329,0.474-0.695,0.908-1.021,1.379
			c-0.221,0.328-0.547,0.652-0.343,1.008c0.244,0.421,0.782,0.783,1.121,1.121c4.528,4.525,8.223,8.293,12.434,12.285
			c1.254,1.188,3.3,3.472,4.323,4.49c0.289,0.293,2.378,0.459,3.745,0.508c1.077,0.043,21.738,0.123,23.216-0.268
			c0.815-0.213,1.777-0.5,1.93-1.306C355.813,469.432,356.931,457.238,357.25,451.781z"/>
	</g>
</g>
</svg>
