<?xml version="1.0" encoding="utf-8"?>
<!-- Generator: Adobe Illustrator 13.0.0, SVG Export Plug-In . SVG Version: 6.00 Build 14948)  -->
<!DOCTYPE svg PUBLIC "-//W3C//DTD SVG 1.1//EN" "http://www.w3.org/Graphics/SVG/1.1/DTD/svg11.dtd">
<svg version="1.1" id="Layer_1" xmlns="http://www.w3.org/2000/svg" xmlns:xlink="http://www.w3.org/1999/xlink" x="0px" y="0px"
	 width="100px" height="100px" viewBox="0 0 100 100" enable-background="new 0 0 100 100" xml:space="preserve">
<g>
	<circle id="XMLID_30_" fill="#FEBA00" cx="50" cy="50" r="50"/>
	<path id="XMLID_44_" fill-rule="evenodd" clip-rule="evenodd" fill="#E76123" d="M69.157,25.431
		c2.244-5.581,1.003-7.494,0.114-7.65c-0.89-0.156-1.427,1.44-4.19,5.514c-3.387,4.992-7.599,6.292-10.594,8.153
		c0.142-1.166,1.216-1.548,2.271-4.377c2.169-5.822-0.721-8.513-3.759-8.466c-3.907,0.059-8.31,4.583-5.133,12.141
		c-0.164,0.007-0.324,0.008-0.485,0.003c-4.701-0.133-10.073-6.123-13.816-11.72c-1.566-3.802-5.102-6.696-3.644,1.197
		c2.016,7.67,8.143,13.318,11.947,18.095c-0.473,5.884-1.729,16.048-2.664,29.566c-0.365,5.287-1.88,10.661-2.242,14.662
		c-0.619,6.832,10.541-2.212,11.069-24.477c2.007,3.434,11.361,24.757,18.817,22.384c2.331-0.134,1.238-2.183-0.635-4.512
		c-5.269-6.549-16.426-30.772-9.012-37.946C62.113,33.245,66.79,31.319,69.157,25.431z M52.432,19.947
		c0.064-0.153,2.781,0.097,3.541,1.875c0.533,1.246-0.116,2.724-0.291,2.709c-0.152-0.014,0.15-1.142-0.417-2.313
		C54.426,20.485,52.374,20.084,52.432,19.947z"/>
</g>
</svg>
